<?xml version="1.0" encoding="utf-8"?>
<!-- Generator: Adobe Illustrator 26.0.0, SVG Export Plug-In . SVG Version: 6.00 Build 0)  -->
<svg version="1.1" id="Layer_1" xmlns="http://www.w3.org/2000/svg" xmlns:xlink="http://www.w3.org/1999/xlink" x="0px" y="0px"
	 viewBox="0 0 200 200" style="enable-background:new 0 0 200 200;" xml:space="preserve">
<style type="text/css">
	.st0{fill:#1C75BC;}
	.st1{fill:#166499;}
	.st2{fill:#FFFFFF;}
</style>
<g>
	<path class="st0" d="M197.55,100c0,14.51-3.15,28.27-8.84,40.63c-15.41,33.6-49.33,56.93-88.7,56.93c-7.69,0-15.18-0.89-22.35-2.57
		C34.55,184.88,2.45,146.19,2.45,100c0-53.88,43.68-97.56,97.56-97.56C153.87,2.44,197.55,46.12,197.55,100z"/>
	<path class="st1" d="M186.7,140.63c-15.41,33.6-49.33,56.93-88.7,56.93c-7.69,0-15.18-0.89-22.35-2.57l-13.05-36.66l85.53-80.75
		L186.7,140.63z"/>
	<path class="st2" d="M99.94,47.79c-30.62,0-55.45,23.2-55.45,51.81c0,16.06,7.82,30.41,20.1,39.91v18.82l15.91-10.21
		c6.05,2.12,12.6,3.28,19.44,3.28c30.62,0,55.45-23.19,55.45-51.81C155.39,70.98,130.56,47.79,99.94,47.79z"/>
	<g>
		<path class="st0" d="M80.44,105.92H69.96l12.1-15.77c1.09-1.43,1.67-2.72,1.67-3.72c0-2.06-1.28-3.33-3.33-3.33H65.21
			c-2.06,0-3.33,1.28-3.33,3.33c0,2.06,1.28,3.33,3.33,3.33h9.6l-12.06,15.73c-1.17,1.47-1.76,2.73-1.76,3.76
			c0,2.06,1.28,3.33,3.33,3.33h16.12c2.06,0,3.33-1.28,3.33-3.33S82.5,105.92,80.44,105.92z"/>
		<path class="st0" d="M103.9,89.72c-1.43,0-2.4,0.54-2.96,1.66l-0.51,1.02l-0.86-0.74c-1.89-1.62-4.05-2.45-6.43-2.45
			c-3.13,0-5.54,1.13-7.36,3.46c-1.83,2.34-2.76,5.21-2.76,8.52s0.93,6.18,2.76,8.52c1.82,2.33,4.23,3.46,7.36,3.46
			c2.55,0,4.68-0.76,6.51-2.32l0.81-0.69l0.53,0.92c0.59,1.02,1.52,1.5,2.9,1.5c2.06,0,3.33-1.28,3.33-3.33v-16.2
			C107.23,91,105.96,89.72,103.9,89.72z M99.06,105.05c-0.99,1.02-2.31,1.57-3.72,1.57c0,0,0,0,0,0c-1.41,0-2.73-0.56-3.71-1.57
			c-1.01-1.06-1.52-2.36-1.52-3.87c0-1.48,0.51-2.76,1.51-3.82c0.98-1.05,2.3-1.64,3.72-1.64c0,0,0,0,0,0
			c1.42,0,2.74,0.58,3.73,1.64c0.99,1.04,1.5,2.33,1.5,3.81C100.57,102.7,100.06,104,99.06,105.05z"/>
		<path class="st0" d="M112.75,83.1c-2.06,0-3.33,1.28-3.33,3.33v22.91c0,2.06,1.28,3.33,3.33,3.33c2.06,0,3.33-1.28,3.33-3.33
			V86.43C116.08,84.37,114.81,83.1,112.75,83.1z"/>
		<path class="st0" d="M138.49,92.79c-2.32-2.32-5.22-3.5-8.61-3.5c-3.36,0-6.26,1.18-8.62,3.5c-2.35,2.35-3.49,5.1-3.49,8.4
			c0,3.28,1.18,6.12,3.5,8.44c2.36,2.32,5.18,3.45,8.61,3.45c3.47,0,6.29-1.13,8.61-3.45c2.32-2.32,3.49-5.16,3.49-8.44
			C141.99,97.89,140.84,95.14,138.49,92.79z M133.6,105.05c-0.99,1.02-2.31,1.57-3.72,1.57c0,0,0,0,0,0c-1.41,0-2.73-0.56-3.71-1.57
			c-1.01-1.06-1.52-2.36-1.52-3.87c0-1.48,0.51-2.76,1.51-3.82c0.98-1.05,2.3-1.64,3.72-1.64c0,0,0,0,0,0
			c1.42,0,2.74,0.58,3.73,1.64c0.99,1.04,1.5,2.33,1.5,3.81C135.11,102.71,134.6,104,133.6,105.05z"/>
	</g>
</g>
</svg>
