<?xml version="1.0" encoding="utf-8"?>
<!-- Generator: Adobe Illustrator 26.0.0, SVG Export Plug-In . SVG Version: 6.00 Build 0)  -->
<svg version="1.1" id="Layer_1" xmlns="http://www.w3.org/2000/svg" xmlns:xlink="http://www.w3.org/1999/xlink" x="0px" y="0px"
	 viewBox="0 0 200 200" style="enable-background:new 0 0 200 200;" xml:space="preserve">
<style type="text/css">
	.st0{fill:#BD1E2E;}
	.st1{fill:#A80F26;}
	.st2{fill:#FFFFFF;}
</style>
<g>
	<path class="st0" d="M197.55,100c0,18.6-5.21,35.99-14.26,50.78c-15.06,24.69-40.79,42.14-70.78,45.98
		c-4.11,0.53-8.29,0.8-12.52,0.8c-53.88,0-97.54-43.68-97.54-97.56c0-53.88,43.66-97.56,97.54-97.56S197.55,46.12,197.55,100z"/>
	<path class="st1" d="M183.29,150.78c-15.06,24.69-40.79,42.14-70.78,45.98L57.89,78.14l18.93-24.27
		C76.82,53.88,138.27,109.78,183.29,150.78z"/>
	<g>
		<path class="st2" d="M57.26,71.98c0.03-7.9,3.28-14.4,8.74-19.9c2.12-2.14,5.69-2.35,8.05-0.49c5.61,4.4,10.59,9.46,14.98,15.08
			c1.86,2.39,1.72,5.51-0.4,7.86c-1.68,1.87-3.58,3.55-5.36,5.32c-1.72,1.71-1.7,1.71-0.54,3.86c2.98,5.5,6.39,10.67,10.98,14.99
			c4.93,4.65,10.12,8.94,16.25,11.97c0.92,0.45,1.49,0.38,2.17-0.34c1.68-1.78,3.38-3.53,5.15-5.21c0.71-0.68,1.55-1.26,2.41-1.72
			c2.44-1.31,4.82-1.11,6.9,0.74c2.77,2.46,5.5,4.95,8.16,7.52c2,1.94,3.83,4.06,5.81,6.01c1.68,1.66,2.48,3.6,2.05,5.9
			c-0.84,4.52-2.51,8.67-6.1,11.76c-3.56,3.06-7.82,3.6-12.29,3.05c-6.09-0.75-11.65-3.12-16.91-6.11
			c-13.34-7.57-25.48-16.66-35.4-28.51c-4.95-5.91-9.32-12.18-12.16-19.4C58.19,80.39,57.25,76.28,57.26,71.98z"/>
	</g>
</g>
</svg>
