<?xml version="1.0" encoding="utf-8"?>
<!-- Generator: Adobe Illustrator 26.0.0, SVG Export Plug-In . SVG Version: 6.00 Build 0)  -->
<svg version="1.1" id="Layer_1" xmlns="http://www.w3.org/2000/svg" xmlns:xlink="http://www.w3.org/1999/xlink" x="0px" y="0px"
	 viewBox="0 0 200 200" style="enable-background:new 0 0 200 200;" xml:space="preserve">
<style type="text/css">
	.st0{fill:#1D80D5;}
	.st1{fill:#166499;}
	.st2{fill:#FAFEFF;}
</style>
<g>
	<path class="st0" d="M197.55,99.94c0,7.74-0.9,15.27-2.6,22.48c-0.23,0.94-0.46,1.9-0.71,2.83c-7.76,28.94-28.5,52.59-55.6,64.28
		c-7.86,3.4-16.24,5.79-25.01,7.01c-0.41,0.07-0.81,0.12-1.22,0.18c-4.07,0.51-8.22,0.78-12.42,0.78c-7.56,0-14.91-0.87-21.98-2.48
		c-43.27-9.97-75.56-48.76-75.56-95.08c0-53.88,43.68-97.56,97.54-97.56C153.87,2.38,197.55,46.06,197.55,99.94z"/>
	<path class="st1" d="M194.95,122.41c-0.23,0.94-0.46,1.9-0.71,2.83c-7.76,28.94-28.5,52.59-55.6,64.28
		c-7.86,3.4-16.24,5.79-25.01,7.01c-0.41,0.07-0.81,0.12-1.22,0.18c-4.09,0.6-8.11,0.9-12.03,0.9c-7.69,0-15.18-0.89-22.35-2.57
		l-0.02-0.04l-15-36.96l87.5-80.41L194.95,122.41z"/>
	<path class="st2" d="M100,47.03c-31.07,0-56.25,23.12-56.25,51.63c0,16.56,8.5,31.28,21.7,40.73l-1.37,18.53l16.63-10.74
		c6.02,2.02,12.51,3.12,19.29,3.12c31.07,0,56.25-23.12,56.25-51.63C156.25,70.15,131.07,47.03,100,47.03z"/>
	<g>
		<polygon class="st0" points="134.31,84.69 104.27,115.19 88.79,99.94 64.08,115.19 92.26,84.69 107.97,98.67 		"/>
	</g>
</g>
</svg>
